<?xml version="1.0" encoding="UTF-8"?>
<svg width="72px" height="75px" viewBox="0 0 72 75" version="1.1" xmlns="http://www.w3.org/2000/svg" xmlns:xlink="http://www.w3.org/1999/xlink">
    <!-- Generator: Sketch 47.1 (45422) - http://www.bohemiancoding.com/sketch -->
    <title>Photo_not_uploaded</title>
    <desc>Created with Sketch.</desc>
    <defs></defs>
    <g id="New-Buy-&amp;-Rent" stroke="none" stroke-width="1" fill="none" fill-rule="evenodd">
        <g id="Photo_not_uploaded">
            <path d="M9.91660018,59.0175439 L8.936522,59.0175439 L5.21425617,53.3198873 L5.21425617,59.0175439 L4.23417799,59.0175439 L4.23417799,51.6237935 L5.21425617,51.6237935 L8.94667825,57.3468406 L8.94667825,51.6237935 L9.91660018,51.6237935 L9.91660018,59.0175439 Z M11.2521471,56.2194968 C11.2521471,55.6812129 11.3579403,55.1971031 11.56953,54.767153 C11.7811196,54.3372029 12.0756479,54.0054354 12.4531238,53.7718404 C12.8305996,53.5382455 13.2613896,53.4214498 13.7455066,53.4214498 C14.4936875,53.4214498 15.0988247,53.6804316 15.5609364,54.198403 C16.0230481,54.7163743 16.2541005,55.4052998 16.2541005,56.2652 L16.2541005,56.3312156 C16.2541005,56.8661141 16.1516927,57.3459922 15.946874,57.7708641 C15.7420552,58.195736 15.4492196,58.5266572 15.0683583,58.7636376 C14.687497,59.000618 14.2499362,59.1191064 13.7556629,59.1191064 C13.0108675,59.1191064 12.4074229,58.8601246 11.9453112,58.3421532 C11.4831995,57.8241818 11.2521471,57.1386418 11.2521471,56.2855125 L11.2521471,56.2194968 Z M12.1966784,56.3312156 C12.1966784,56.9405937 12.3380182,57.4297815 12.6207019,57.7987938 C12.9033856,58.1678061 13.2817022,58.3523094 13.7556629,58.3523094 C14.2330091,58.3523094 14.612172,58.165267 14.893163,57.7911766 C15.174154,57.4170862 15.3146474,56.8931982 15.3146474,56.2194968 C15.3146474,55.6168896 15.1716149,55.1285481 14.8855458,54.7544577 C14.5994766,54.3803673 14.2194674,54.1933248 13.7455066,54.1933248 C13.2817022,54.1933248 12.9076174,54.3778282 12.623241,54.7468405 C12.3388645,55.1158528 12.1966784,55.6439725 12.1966784,56.3312156 Z M18.706835,52.1925435 L18.706835,53.5230123 L19.7326163,53.5230123 L19.7326163,54.2491842 L18.706835,54.2491842 L18.706835,57.6566063 C18.706835,57.8766595 18.7525377,58.0416969 18.8439444,58.1517235 C18.9353511,58.2617501 19.0910788,58.3167626 19.3111319,58.3167626 C19.4194658,58.3167626 19.5684227,58.2964503 19.758007,58.2558251 L19.758007,59.0175439 C19.5108703,59.0852525 19.2705081,59.1191064 19.0369132,59.1191064 C18.6171194,59.1191064 18.3005861,58.9921545 18.0873038,58.738247 C17.8740214,58.4843394 17.7673819,58.1237961 17.7673819,57.6566063 L17.7673819,54.2491842 L16.7669912,54.2491842 L16.7669912,53.5230123 L17.7673819,53.5230123 L17.7673819,52.1925435 L18.706835,52.1925435 Z M28.756445,51.6237935 L28.756445,56.6511375 C28.7530595,57.3485368 28.533856,57.9189739 28.0988277,58.3624657 C27.6637995,58.8059575 27.0738965,59.0547832 26.3291011,59.1089501 L26.0701167,59.1191064 C25.260998,59.1191064 24.6160826,58.9007492 24.135351,58.4640282 C23.6546194,58.0273072 23.4108718,57.4264018 23.4041009,56.6612937 L23.4041009,51.6237935 L24.3689447,51.6237935 L24.3689447,56.630825 C24.3689447,57.1657235 24.5162089,57.5812793 24.8107416,57.8775047 C25.1052744,58.1737302 25.5250619,58.3218407 26.0701167,58.3218407 C26.6219424,58.3218407 27.0442689,58.1745765 27.337109,57.8800438 C27.629949,57.5855111 27.7763668,57.1708016 27.7763668,56.6359031 L27.7763668,51.6237935 L28.756445,51.6237935 Z M34.7892578,56.3312156 C34.7892578,57.1674177 34.5979837,57.8411089 34.2154296,58.3523094 C33.8328756,58.8635099 33.314912,59.1191064 32.6615233,59.1191064 C31.9945929,59.1191064 31.4698585,58.9075199 31.0873045,58.4843407 L31.0873045,61.130044 L30.1478513,61.130044 L30.1478513,53.5230123 L31.0060545,53.5230123 L31.0517576,54.1323873 C31.4343116,53.6584266 31.9658167,53.4214498 32.6462889,53.4214498 C33.3064485,53.4214498 33.8286438,53.6702755 34.2128906,54.1679342 C34.5971373,54.665593 34.7892578,55.3579038 34.7892578,56.2448875 L34.7892578,56.3312156 Z M33.8498046,56.224575 C33.8498046,55.6050406 33.7177747,55.1158527 33.4537109,54.7569968 C33.189647,54.3981408 32.827411,54.2187155 32.366992,54.2187155 C31.7982392,54.2187155 31.3716809,54.4709265 31.0873045,54.9753561 L31.0873045,57.6007469 C31.3682955,58.1017911 31.7982391,58.3523094 32.3771483,58.3523094 C32.827411,58.3523094 33.1854152,58.1737305 33.4511718,57.8165672 C33.7169283,57.459404 33.8498046,56.9287452 33.8498046,56.224575 Z M37.0033204,59.0175439 L36.0638672,59.0175439 L36.0638672,51.2175434 L37.0033204,51.2175434 L37.0033204,59.0175439 Z M38.2576174,56.2194968 C38.2576174,55.6812129 38.3634106,55.1971031 38.5750002,54.767153 C38.7865898,54.3372029 39.0811181,54.0054354 39.458594,53.7718404 C39.8360699,53.5382455 40.2668598,53.4214498 40.7509769,53.4214498 C41.4991577,53.4214498 42.104295,53.6804316 42.5664067,54.198403 C43.0285184,54.7163743 43.2595708,55.4052998 43.2595708,56.2652 L43.2595708,56.3312156 C43.2595708,56.8661141 43.1571629,57.3459922 42.9523442,57.7708641 C42.7475254,58.195736 42.4546898,58.5266572 42.0738285,58.7636376 C41.6929672,59.000618 41.2554065,59.1191064 40.7611331,59.1191064 C40.0163377,59.1191064 39.4128932,58.8601246 38.9507815,58.3421532 C38.4886698,57.8241818 38.2576174,57.1386418 38.2576174,56.2855125 L38.2576174,56.2194968 Z M39.2021487,56.3312156 C39.2021487,56.9405937 39.3434884,57.4297815 39.6261721,57.7987938 C39.9088559,58.1678061 40.2871724,58.3523094 40.7611331,58.3523094 C41.2384793,58.3523094 41.6176422,58.165267 41.8986332,57.7911766 C42.1796242,57.4170862 42.3201176,56.8931982 42.3201176,56.2194968 C42.3201176,55.6168896 42.1770852,55.1285481 41.891016,54.7544577 C41.6049468,54.3803673 41.2249376,54.1933248 40.7509769,54.1933248 C40.2871725,54.1933248 39.9130876,54.3778282 39.6287112,54.7468405 C39.3443348,55.1158528 39.2021487,55.6439725 39.2021487,56.3312156 Z M47.8298835,59.0175439 C47.7757166,58.90921 47.7317066,58.7162431 47.6978523,58.4386376 C47.2611313,58.8922857 46.7397823,59.1191064 46.1337897,59.1191064 C45.5921203,59.1191064 45.1477888,58.9659178 44.8007818,58.659536 C44.4537748,58.3531543 44.2802739,57.9646816 44.2802739,57.4941063 C44.2802739,56.921968 44.4977848,56.4776364 44.932813,56.1610984 C45.3678413,55.8445603 45.9797493,55.6862937 46.7685553,55.6862937 L47.6826179,55.6862937 L47.6826179,55.254653 C47.6826179,54.926266 47.5844418,54.6647451 47.3880866,54.4700827 C47.1917315,54.2754202 46.9022812,54.1780905 46.5197272,54.1780905 C46.1845693,54.1780905 45.9035825,54.262725 45.6767584,54.4319967 C45.4499343,54.6012684 45.336524,54.8060841 45.336524,55.0464499 L44.3919927,55.0464499 C44.3919927,54.7722298 44.4893225,54.5073235 44.6839849,54.2517233 C44.8786474,53.996123 45.1427072,53.7938464 45.4761725,53.6448873 C45.8096377,53.4959282 46.1761054,53.4214498 46.5755866,53.4214498 C47.2086627,53.4214498 47.7046213,53.5797165 48.0634773,53.8962545 C48.4223333,54.2127926 48.6085293,54.6486606 48.6220711,55.2038718 L48.6220711,57.7327782 C48.6220711,58.2372078 48.6863933,58.6383757 48.8150398,58.9362939 L48.8150398,59.0175439 L47.8298835,59.0175439 Z M46.2708991,58.3015282 C46.5654318,58.3015282 46.8447259,58.2253571 47.1087897,58.0730126 C47.3728536,57.920668 47.5641277,57.7226231 47.6826179,57.4788719 L47.6826179,56.3515281 L46.9462897,56.3515281 C45.7952422,56.3515281 45.2197271,56.6883737 45.2197271,57.362075 C45.2197271,57.6566078 45.3179032,57.8868138 45.5142584,58.0527001 C45.7106136,58.2185863 45.9628246,58.3015282 46.2708991,58.3015282 Z M49.8662118,56.224575 C49.8662118,55.3816019 50.0659494,54.703679 50.4654305,54.1907858 C50.8649117,53.6778926 51.3879534,53.4214498 52.0345712,53.4214498 C52.6778037,53.4214498 53.1873038,53.6414997 53.563087,54.0816061 L53.563087,51.2175434 L54.5025401,51.2175434 L54.5025401,59.0175439 L53.6392588,59.0175439 L53.5935557,58.4284813 C53.2177726,58.8889003 52.6947309,59.1191064 52.024415,59.1191064 C51.3879534,59.1191064 50.8691435,58.8584319 50.4679696,58.3370751 C50.0667957,57.8157183 49.8662118,57.1352563 49.8662118,56.2956687 L49.8662118,56.224575 Z M50.8056649,56.3312156 C50.8056649,56.9541354 50.9343095,57.4416306 51.1916025,57.7937157 C51.4488954,58.1458008 51.8043606,58.3218407 52.2580088,58.3218407 C52.8538451,58.3218407 53.2888668,58.0543954 53.563087,57.5194969 L53.563087,54.9956686 C53.282096,54.4776973 52.8504596,54.2187155 52.268165,54.2187155 C51.807746,54.2187155 51.4488954,54.3964481 51.1916025,54.7519186 C50.9343095,55.1073892 50.8056649,55.6338162 50.8056649,56.3312156 Z M58.2400403,59.1191064 C57.4952449,59.1191064 56.8892614,58.8745124 56.4220715,58.3853173 C55.9548816,57.8961221 55.7212902,57.2418968 55.7212902,56.4226218 L55.7212902,56.2499656 C55.7212902,55.7049107 55.8253907,55.2182619 56.0335949,54.7900046 C56.2417991,54.3617472 56.532942,54.0265943 56.9070325,53.7845358 C57.2811229,53.5424772 57.6865225,53.4214498 58.1232435,53.4214498 C58.83757,53.4214498 59.3927728,53.6567339 59.7888686,54.1273092 C60.1849643,54.5978845 60.3830092,55.2715757 60.3830092,56.1484031 L60.3830092,56.5394187 L56.6607434,56.5394187 C56.6742851,57.0810881 56.8325518,57.5186489 57.1355481,57.8521141 C57.4385444,58.1855793 57.8236317,58.3523094 58.2908216,58.3523094 C58.6225941,58.3523094 58.9035809,58.2846018 59.1337904,58.1491844 C59.3639999,58.0137671 59.5654302,57.8343418 59.7380873,57.6109032 L60.3119155,58.0577782 C59.8514965,58.7653338 59.1608783,59.1191064 58.2400403,59.1191064 Z M58.1232435,54.1933248 C57.7440749,54.1933248 57.4258489,54.3312792 57.1685559,54.6071921 C56.9112629,54.8831049 56.7521499,55.2698849 56.6912121,55.7675437 L59.443556,55.7675437 L59.443556,55.6964499 C59.4164726,55.2191038 59.287828,54.8492507 59.0576185,54.5868796 C58.827409,54.3245084 58.5159538,54.1933248 58.1232435,54.1933248 Z M61.2412124,56.224575 C61.2412124,55.3816019 61.44095,54.703679 61.8404312,54.1907858 C62.2399124,53.6778926 62.762954,53.4214498 63.4095719,53.4214498 C64.0528043,53.4214498 64.5623044,53.6414997 64.9380876,54.0816061 L64.9380876,51.2175434 L65.8775408,51.2175434 L65.8775408,59.0175439 L65.0142595,59.0175439 L64.9685563,58.4284813 C64.5927732,58.8889003 64.0697315,59.1191064 63.3994156,59.1191064 C62.7629541,59.1191064 62.2441441,58.8584319 61.8429702,58.3370751 C61.4417963,57.8157183 61.2412124,57.1352563 61.2412124,56.2956687 L61.2412124,56.224575 Z M62.1806656,56.3312156 C62.1806656,56.9541354 62.3093101,57.4416306 62.5666031,57.7937157 C62.823896,58.1458008 63.1793613,58.3218407 63.6330094,58.3218407 C64.2288457,58.3218407 64.6638674,58.0543954 64.9380876,57.5194969 L64.9380876,54.9956686 C64.6570966,54.4776973 64.2254602,54.2187155 63.6431656,54.2187155 C63.1827466,54.2187155 62.823896,54.3964481 62.5666031,54.7519186 C62.3093101,55.1073892 62.1806656,55.6338162 62.1806656,56.3312156 Z M10.1832018,69.3312163 C10.1832018,70.1708039 9.99023493,70.8453414 9.60429548,71.3548492 C9.21835603,71.864357 8.70039243,72.1191071 8.05038914,72.1191071 C7.35637522,72.1191071 6.81979201,71.8736668 6.44062343,71.3827789 L6.3949203,72.0175446 L5.531639,72.0175446 L5.531639,64.2175441 L6.47109218,64.2175441 L6.47109218,67.1273099 C6.85026076,66.6567346 7.37330244,66.4214505 8.04023289,66.4214505 C8.70716335,66.4214505 9.23105137,66.6736616 9.61191267,67.1780912 C9.99277397,67.6825208 10.1832018,68.3731389 10.1832018,69.2499663 L10.1832018,69.3312163 Z M9.24374858,69.2245757 C9.24374858,68.5847287 9.1201821,68.0904628 8.87304544,67.7417631 C8.62590877,67.3930634 8.27044356,67.2187162 7.80663913,67.2187162 C7.18710475,67.2187162 6.74192688,67.5064737 6.47109218,68.0819975 L6.47109218,70.4585601 C6.75885405,71.0340839 7.2074173,71.3218414 7.81679538,71.3218414 C8.26705807,71.3218414 8.61744521,71.1474942 8.86796731,70.7987945 C9.11848941,70.4500948 9.24374858,69.9253605 9.24374858,69.2245757 Z M13.1640613,70.6413726 L14.4437489,66.523013 L15.4492177,66.523013 L13.2402332,72.8655915 C12.8983044,73.7796586 12.3549504,74.2366853 11.610155,74.2366853 L11.4324206,74.2214509 L11.0820299,74.1554353 L11.0820299,73.3937165 L11.3359362,73.414029 C11.654167,73.414029 11.9021463,73.3497067 12.0798816,73.2210603 C12.2576168,73.0924138 12.4040346,72.8571297 12.5191394,72.5152009 L12.7273425,71.9566071 L10.7671862,66.523013 L11.7929675,66.523013 L13.1640613,70.6413726 Z M23.0917962,70.087857 L19.9941398,70.087857 L19.2984366,72.0175446 L18.2929678,72.0175446 L21.1164055,64.6237942 L21.9695305,64.6237942 L24.7980463,72.0175446 L23.7976556,72.0175446 L23.0917962,70.087857 Z M20.2886711,69.2855132 L22.8023431,69.2855132 L21.542968,65.8273099 L20.2886711,69.2855132 Z M25.4175776,69.2245757 C25.4175776,68.3816027 25.6173152,67.7036797 26.0167964,67.1907865 C26.4162776,66.6778933 26.9393192,66.4214505 27.5859371,66.4214505 C28.2291695,66.4214505 28.7386697,66.6415004 29.1144528,67.0816068 L29.1144528,64.2175441 L30.053906,64.2175441 L30.053906,72.0175446 L29.1906247,72.0175446 L29.1449216,71.428482 C28.7691384,71.888901 28.2460967,72.1191071 27.5757808,72.1191071 C26.9393193,72.1191071 26.4205093,71.8584326 26.0193354,71.3370758 C25.6181615,70.815719 25.4175776,70.135257 25.4175776,69.2956694 L25.4175776,69.2245757 Z M26.3570308,69.3312163 C26.3570308,69.9541361 26.4856753,70.4416313 26.7429683,70.7937164 C27.0002613,71.1458015 27.3557265,71.3218414 27.8093746,71.3218414 C28.4052109,71.3218414 28.8402327,71.0543962 29.1144528,70.5194976 L29.1144528,67.9956694 C28.8334618,67.477698 28.4018255,67.2187162 27.8195309,67.2187162 C27.3591119,67.2187162 27.0002613,67.3964488 26.7429683,67.7519193 C26.4856753,68.1073899 26.3570308,68.6338169 26.3570308,69.3312163 Z M33.3242187,70.7429351 L34.6851562,66.523013 L35.6449219,66.523013 L33.6746093,72.0175446 L32.9585936,72.0175446 L30.9679685,66.523013 L31.9277342,66.523013 L33.3242187,70.7429351 Z M38.8289065,72.1191071 C38.084111,72.1191071 37.4781275,71.8745132 37.0109376,71.385318 C36.5437477,70.8961228 36.3101563,70.2418975 36.3101563,69.4226226 L36.3101563,69.2499663 C36.3101563,68.7049115 36.4142568,68.2182627 36.622461,67.7900053 C36.8306652,67.3617479 37.1218081,67.026595 37.4958986,66.7845365 C37.869989,66.542478 38.2753886,66.4214505 38.7121096,66.4214505 C39.4264361,66.4214505 39.9816389,66.6567346 40.3777347,67.1273099 C40.7738304,67.5978852 40.9718753,68.2715764 40.9718753,69.1484038 L40.9718753,69.5394194 L37.2496095,69.5394194 C37.2631512,70.0810888 37.4214179,70.5186496 37.7244142,70.8521148 C38.0274105,71.1855801 38.4124979,71.3523102 38.8796877,71.3523102 C39.2114602,71.3523102 39.492447,71.2846025 39.7226565,71.1491852 C39.952866,71.0137678 40.1542963,70.8343425 40.3269534,70.6109039 L40.9007816,71.0577789 C40.4403626,71.7653346 39.7497444,72.1191071 38.8289065,72.1191071 Z M38.7121096,67.1933256 C38.332941,67.1933256 38.014715,67.3312799 37.757422,67.6071928 C37.5001291,67.8831056 37.3410161,68.2698856 37.2800783,68.7675444 L40.0324222,68.7675444 L40.0324222,68.6964506 C40.0053387,68.2191045 39.8766941,67.8492514 39.6464846,67.5868803 C39.4162751,67.3245092 39.1048199,67.1933256 38.7121096,67.1933256 Z M44.7144537,67.3659818 C44.5722654,67.3422838 44.4182305,67.3304349 44.2523443,67.3304349 C43.6361953,67.3304349 43.2181005,67.5928021 42.9980473,68.1175444 L42.9980473,72.0175446 L42.0585941,72.0175446 L42.0585941,66.523013 L42.9726567,66.523013 L42.9878911,67.1577787 C43.2959655,66.6668908 43.7326799,66.4214505 44.2980474,66.4214505 C44.4808608,66.4214505 44.6196615,66.4451482 44.7144537,66.4925443 L44.7144537,67.3659818 Z M46.8523444,65.1925442 L46.8523444,66.523013 L47.8781257,66.523013 L47.8781257,67.2491849 L46.8523444,67.2491849 L46.8523444,70.656607 C46.8523444,70.8766602 46.8980471,71.0416976 46.9894538,71.1517242 C47.0808605,71.2617508 47.2365881,71.3167633 47.4566413,71.3167633 C47.5649752,71.3167633 47.713932,71.296451 47.9035163,71.2558258 L47.9035163,72.0175446 C47.6563797,72.0852533 47.4160175,72.1191071 47.1824225,72.1191071 C46.7626288,72.1191071 46.4460954,71.9921552 46.2328131,71.7382477 C46.0195308,71.4843402 45.9128912,71.1237969 45.9128912,70.656607 L45.9128912,67.2491849 L44.9125005,67.2491849 L44.9125005,66.523013 L45.9128912,66.523013 L45.9128912,65.1925442 L46.8523444,65.1925442 Z M49.995704,72.0175446 L49.0562508,72.0175446 L49.0562508,66.523013 L49.995704,66.523013 L49.995704,72.0175446 Z M48.9800789,65.0655911 C48.9800789,64.9132465 49.0266279,64.784602 49.1197273,64.6796535 C49.2128268,64.5747051 49.3507811,64.5222317 49.5335945,64.5222317 C49.716408,64.5222317 49.8552087,64.5747051 49.9500008,64.6796535 C50.044793,64.784602 50.0921883,64.9132465 50.0921883,65.0655911 C50.0921883,65.2179356 50.044793,65.3448874 49.9500008,65.4464505 C49.8552087,65.5480135 49.716408,65.5987942 49.5335945,65.5987942 C49.3507811,65.5987942 49.2128268,65.5480135 49.1197273,65.4464505 C49.0266279,65.3448874 48.9800789,65.2179356 48.9800789,65.0655911 Z M54.698048,70.5601226 C54.698048,70.3062151 54.6024109,70.1090165 54.4111339,69.968521 C54.2198569,69.8280255 53.8863966,69.7069981 53.4107432,69.6054351 C52.9350898,69.5038721 52.5576195,69.3819983 52.2783213,69.23981 C51.999023,69.0976218 51.7925146,68.9283527 51.65879,68.7319975 C51.5250653,68.5356424 51.458204,68.3020509 51.458204,68.0312162 C51.458204,67.5809535 51.6486318,67.200098 52.0294931,66.888638 C52.4103544,66.5771781 52.8970032,66.4214505 53.4894541,66.4214505 C54.112374,66.4214505 54.6176424,66.5822562 55.0052745,66.9038724 C55.3929067,67.2254886 55.5867199,67.6368127 55.5867199,68.1378569 L54.6421886,68.1378569 C54.6421886,67.8805639 54.53301,67.6588213 54.3146495,67.4726224 C54.096289,67.2864236 53.8212267,67.1933256 53.4894541,67.1933256 C53.1475253,67.1933256 52.8800801,67.267804 52.6871103,67.4167631 C52.4941406,67.5657222 52.3976572,67.7603817 52.3976572,68.0007475 C52.3976572,68.2275715 52.4873699,68.3985334 52.6667978,68.5136381 C52.8462258,68.6287429 53.1703763,68.7387678 53.6392588,68.8437163 C54.1081414,68.9486647 54.4881507,69.0739239 54.779298,69.2194975 C55.0704453,69.3650712 55.2862634,69.5402648 55.4267589,69.7450835 C55.5672544,69.9499023 55.6375011,70.1995743 55.6375011,70.494107 C55.6375011,70.9849949 55.4411489,71.3785457 55.0484386,71.6747711 C54.6557283,71.9709966 54.1462281,72.1191071 53.5199229,72.1191071 C53.0798165,72.1191071 52.6904975,72.0412433 52.3519541,71.8855133 C52.0134107,71.7297834 51.7485045,71.5122725 51.5572275,71.2329742 C51.3659505,70.9536759 51.2703134,70.6515305 51.2703134,70.3265289 L52.2097666,70.3265289 C52.2266937,70.6413742 52.3527993,70.8910462 52.5880869,71.0755523 C52.8233746,71.2600585 53.1339834,71.3523102 53.5199229,71.3523102 C53.8753934,71.3523102 54.160612,71.2803708 54.375587,71.1364898 C54.590562,70.9926089 54.698048,70.8004884 54.698048,70.5601226 Z M59.1414076,72.1191071 C58.3966121,72.1191071 57.7906286,71.8745132 57.3234387,71.385318 C56.8562489,70.8961228 56.6226574,70.2418975 56.6226574,69.4226226 L56.6226574,69.2499663 C56.6226574,68.7049115 56.726758,68.2182627 56.9349621,67.7900053 C57.1431663,67.3617479 57.4343093,67.026595 57.8083997,66.7845365 C58.1824901,66.542478 58.5878897,66.4214505 59.0246107,66.4214505 C59.7389372,66.4214505 60.29414,66.6567346 60.6902358,67.1273099 C61.0863315,67.5978852 61.2843764,68.2715764 61.2843764,69.1484038 L61.2843764,69.5394194 L57.5621106,69.5394194 C57.5756524,70.0810888 57.733919,70.5186496 58.0369153,70.8521148 C58.3399117,71.1855801 58.724999,71.3523102 59.1921888,71.3523102 C59.5239613,71.3523102 59.8049481,71.2846025 60.0351576,71.1491852 C60.2653671,71.0137678 60.4667974,70.8343425 60.6394545,70.6109039 L61.2132827,71.0577789 C60.7528637,71.7653346 60.0622456,72.1191071 59.1414076,72.1191071 Z M59.0246107,67.1933256 C58.6454421,67.1933256 58.3272161,67.3312799 58.0699231,67.6071928 C57.8126302,67.8831056 57.6535172,68.2698856 57.5925794,68.7675444 L60.3449233,68.7675444 L60.3449233,68.6964506 C60.3178398,68.2191045 60.1891952,67.8492514 59.9589857,67.5868803 C59.7287763,67.3245092 59.417321,67.1933256 59.0246107,67.1933256 Z M65.0269548,67.3659818 C64.8847666,67.3422838 64.7307316,67.3304349 64.5648454,67.3304349 C63.9486964,67.3304349 63.5306016,67.5928021 63.3105484,68.1175444 L63.3105484,72.0175446 L62.3710953,72.0175446 L62.3710953,66.523013 L63.2851578,66.523013 L63.3003922,67.1577787 C63.6084667,66.6668908 64.0451811,66.4214505 64.6105485,66.4214505 C64.7933619,66.4214505 64.9321626,66.4451482 65.0269548,66.4925443 L65.0269548,67.3659818 Z" id="Not-Uploaded-by-Adve" fill="#A8A8A8"></path>
            <g id="New-Projects" transform="translate(0.661972, 0.000000)">
                <g id="Group-9" transform="translate(3.353770, 0.000000)">
                    <g id="Group-2">
                        <path d="M26.5274459,41.6951466 L26.5274459,4.64615619 C26.5274459,3.84841285 27.2062466,3.29892017 27.8721177,3.29892017 L39.3018281,3.29892017 C39.9676992,3.29892017 40.6464999,3.84841285 40.6464999,4.64615619 L40.6464999,41.6951466" id="Shape" fill="#FFFFFF"></path>
                        <path d="M27.502446,41.6951466 L27.502446,4.64615619 C27.502446,4.44488728 27.6848374,4.27392023 27.8721177,4.27392023 L39.3018281,4.27392023 C39.4891084,4.27392023 39.6714998,4.44488728 39.6714998,4.64615619 L39.6714998,41.6951466 L41.6214999,41.6951466 L41.6214999,4.64615619 C41.6214999,3.33872853 40.5388797,2.32392012 39.3018281,2.32392012 L27.8721177,2.32392012 C26.6350661,2.32392012 25.5524459,3.33872853 25.5524459,4.64615619 L25.5524459,41.6951466 L27.502446,41.6951466 Z" id="Shape" fill="#CCCCCC" fill-rule="nonzero"></path>
                        <path d="M30.5003584,41.6223551 L30.5003584,38.7719434 C30.5003584,38.7179144 30.4842554,38.734048 30.5369445,38.734048 L36.7162198,38.734048 C36.7689089,38.734048 36.7528059,38.7179144 36.7528059,38.7719434 L36.7528059,41.6223551 L38.052806,41.6223551 L38.052806,38.7719434 C38.052806,38.000498 37.4874341,37.434048 36.7162198,37.434048 L30.5369445,37.434048 C29.7657302,37.434048 29.2003583,38.000498 29.2003583,38.7719434 L29.2003583,41.6223551 L30.5003584,41.6223551 Z" id="Shape" fill="#CCCCCC" fill-rule="nonzero"></path>
                        <polygon id="Shape" fill="#D7D7D7" fill-rule="nonzero" points="28.8584703 10.4704335 38.2711729 10.4704335 38.2711729 9.1704334 28.8584703 9.1704334"></polygon>
                        <polygon id="Shape" fill="#CCCCCC" fill-rule="nonzero" points="28.8584703 7.11026835 38.2711729 7.11026835 38.2711729 5.81026828 28.8584703 5.81026828"></polygon>
                        <polygon id="Shape" fill="#CCCCCC" fill-rule="nonzero" points="28.8584703 14.5061528 32.4287182 14.5061528 32.4287182 13.2061527 28.8584703 13.2061527"></polygon>
                        <polygon id="Shape" fill="#CCCCCC" fill-rule="nonzero" points="34.8244461 14.5061528 38.2533592 14.5061528 38.2533592 13.2061527 34.8244461 13.2061527"></polygon>
                        <polygon id="Shape" fill="#CCCCCC" fill-rule="nonzero" points="28.8584703 17.8742428 32.4287182 17.8742428 32.4287182 16.5742427 28.8584703 16.5742427"></polygon>
                        <polygon id="Shape" fill="#CCCCCC" fill-rule="nonzero" points="34.8244461 17.8742428 38.2533592 17.8742428 38.2533592 16.5742427 34.8244461 16.5742427"></polygon>
                        <polygon id="Shape" fill="#CCCCCC" fill-rule="nonzero" points="28.8584703 21.2423329 32.4287182 21.2423329 32.4287182 19.9423328 28.8584703 19.9423328"></polygon>
                        <polygon id="Shape" fill="#CCCCCC" fill-rule="nonzero" points="34.8244461 21.2423329 38.2533592 21.2423329 38.2533592 19.9423328 34.8244461 19.9423328"></polygon>
                        <polygon id="Shape" fill="#CCCCCC" fill-rule="nonzero" points="28.8584703 24.6104229 32.4287182 24.6104229 32.4287182 23.3104228 28.8584703 23.3104228"></polygon>
                        <polygon id="Shape" fill="#CCCCCC" fill-rule="nonzero" points="34.8244461 24.6104229 38.2533592 24.6104229 38.2533592 23.3104228 34.8244461 23.3104228"></polygon>
                        <polygon id="Shape" fill="#CCCCCC" fill-rule="nonzero" points="28.8584703 27.9785129 32.4287182 27.9785129 32.4287182 26.6785129 28.8584703 26.6785129"></polygon>
                        <polygon id="Shape" fill="#CCCCCC" fill-rule="nonzero" points="34.8244461 27.9785129 38.2533592 27.9785129 38.2533592 26.6785129 34.8244461 26.6785129"></polygon>
                        <polygon id="Shape" fill="#CCCCCC" fill-rule="nonzero" points="28.8584703 31.346603 32.4287182 31.346603 32.4287182 30.0466029 28.8584703 30.0466029"></polygon>
                        <polygon id="Shape" fill="#CCCCCC" fill-rule="nonzero" points="34.8244461 31.346603 38.2533592 31.346603 38.2533592 30.0466029 34.8244461 30.0466029"></polygon>
                        <path d="M41.6214999,41.6951466 L41.6214999,11.3823363 C41.6214999,11.1825885 41.8052438,11.0101003 41.9911717,11.0101003 L53.420882,11.0101003 C53.6797652,11.0101003 53.7905538,11.1215818 53.7905538,11.3823363 L53.7905538,41.6951466 L55.7405539,41.6951466 L55.7405539,11.3823363 C55.7405539,10.0473388 54.7594516,9.06010019 53.420882,9.06010019 L41.9911717,9.06010019 C40.754879,9.06010019 39.6714998,10.077114 39.6714998,11.3823363 L39.6714998,41.6951466 L41.6214999,41.6951466 Z" id="Shape" fill="#CCCCCC" fill-rule="nonzero"></path>
                        <path d="M41.6214999,41.6951466 L41.6214999,11.3823363 C41.6214999,11.1825885 41.8052438,11.0101003 41.9911717,11.0101003 L53.420882,11.0101003 C53.6797652,11.0101003 53.7905538,11.1215818 53.7905538,11.3823363 L53.7905538,41.6951466 L55.7405539,41.6951466 L55.7405539,11.3823363 C55.7405539,10.0473388 54.7594516,9.06010019 53.420882,9.06010019 L41.9911717,9.06010019 C40.754879,9.06010019 39.6714998,10.077114 39.6714998,11.3823363 L39.6714998,41.6951466 L41.6214999,41.6951466 Z" id="Shape" fill="#CCCCCC" fill-rule="nonzero"></path>
                        <path d="M51.98343,21.4992835 L51.98343,23.838128" id="Shape" stroke="#CCCCCC" stroke-width="1.30000007"></path>
                        <path d="M47.7912179,21.4992835 L47.7912179,23.838128" id="Shape" stroke="#CCCCCC" stroke-width="1.30000007"></path>
                        <path d="M43.5990058,21.4992835 L43.5990058,23.838128" id="Shape" stroke="#CCCCCC" stroke-width="1.30000007"></path>
                        <path d="M51.98343,25.5409916 L51.98343,27.879836" id="Shape" stroke="#CCCCCC" stroke-width="1.30000007"></path>
                        <path d="M47.7912179,25.5409916 L47.7912179,27.879836" id="Shape" stroke="#CCCCCC" stroke-width="1.30000007"></path>
                        <path d="M43.5990058,25.5409916 L43.5990058,27.879836" id="Shape" stroke="#CCCCCC" stroke-width="1.30000007"></path>
                        <polygon id="Shape" fill="#CCCCCC" fill-rule="nonzero" points="51.33343 29.5826996 51.33343 31.921544 52.63343 31.921544 52.63343 29.5826996"></polygon>
                        <polygon id="Shape" fill="#CCCCCC" fill-rule="nonzero" points="47.1412179 29.5826996 47.1412179 31.921544 48.4412179 31.921544 48.4412179 29.5826996"></polygon>
                        <polygon id="Shape" fill="#CCCCCC" fill-rule="nonzero" points="42.9490058 29.5826996 42.9490058 31.921544 44.2490058 31.921544 44.2490058 29.5826996"></polygon>
                        <polygon id="Shape" fill="#CCCCCC" fill-rule="nonzero" points="51.33343 17.2343319 51.33343 19.4355973 52.63343 19.4355973 52.63343 17.2343319"></polygon>
                        <polygon id="Shape" fill="#CCCCCC" fill-rule="nonzero" points="47.1412179 17.2343319 47.1412179 19.4355973 48.4412179 19.4355973 48.4412179 17.2343319"></polygon>
                        <polygon id="Shape" fill="#CCCCCC" fill-rule="nonzero" points="42.9490058 17.2343319 42.9490058 19.4355973 44.2490058 19.4355973 44.2490058 17.2343319"></polygon>
                        <polygon id="Shape" fill="#CCCCCC" fill-rule="nonzero" points="51.33343 12.9693803 51.33343 15.1706457 52.63343 15.1706457 52.63343 12.9693803"></polygon>
                        <polygon id="Shape" fill="#CCCCCC" fill-rule="nonzero" points="47.1412179 12.9693803 47.1412179 15.1706457 48.4412179 15.1706457 48.4412179 12.9693803"></polygon>
                        <polygon id="Shape" fill="#CCCCCC" fill-rule="nonzero" points="42.9490058 12.9693803 42.9490058 15.1706457 44.2490058 15.1706457 44.2490058 12.9693803"></polygon>
                        <path d="M12.408392,41.6951466 L12.408392,18.7921343 C12.408392,18.1285283 13.0871926,17.4448983 13.7530638,17.4448983 L25.1827741,17.4448983 C25.9844054,17.4448983 26.5274459,18.1285283 26.5274459,18.7921343 L26.5274459,41.6951466" id="Shape" fill="#F6F6F6"></path>
                        <path d="M13.383392,41.6951466 L13.383392,18.7921343 C13.383392,18.665037 13.6276382,18.4198984 13.7530638,18.4198984 L25.1827741,18.4198984 C25.383159,18.4198984 25.5524459,18.602023 25.5524459,18.7921343 L25.5524459,41.6951466 L27.502446,41.6951466 L27.502446,18.7921343 C27.502446,17.5556254 26.4932507,16.4698983 25.1827741,16.4698983 L13.7530638,16.4698983 C12.5490876,16.4698983 11.4333919,17.5896706 11.4333919,18.7921343 L11.4333919,41.6951466 L13.383392,41.6951466 Z" id="Shape" fill="#CBCBCB" fill-rule="nonzero"></path>
                        <path d="M15.5693667,41.6501863 L15.5693667,38.7719434 C15.5693667,38.3592062 15.8440011,38.084048 16.2559528,38.084048 L22.4352281,38.084048 C22.8471797,38.084048 23.1218142,38.3592062 23.1218142,38.7719434 L23.1218142,41.6501863" id="Shape" stroke="#CCCCCC" stroke-width="1.30000007" fill="#FFFFFF"></path>
                        <path d="M44.4574746,41.6501863 L44.4574746,38.7719434 C44.4574746,38.7179144 44.4413716,38.734048 44.4940607,38.734048 L50.673336,38.734048 C50.726025,38.734048 50.7099221,38.7179144 50.7099221,38.7719434 L50.7099221,41.6501863 L52.0099221,41.6501863 L52.0099221,38.7719434 C52.0099221,38.000498 51.4445502,37.434048 50.673336,37.434048 L44.4940607,37.434048 C43.7228464,37.434048 43.1574745,38.000498 43.1574745,38.7719434 L43.1574745,41.6501863 L44.4574746,41.6501863 Z" id="Shape" fill="#CCCCCC" fill-rule="nonzero"></path>
                        <polygon id="Shape" fill="#CCCCCC" fill-rule="nonzero" points="14.8827805 20.9709495 18.4530284 20.9709495 18.4530284 19.6709494 14.8827805 19.6709494"></polygon>
                        <polygon id="Shape" fill="#CCCCCC" fill-rule="nonzero" points="20.5127869 20.9709495 24.0830348 20.9709495 24.0830348 19.6709494 20.5127869 19.6709494"></polygon>
                        <polygon id="Shape" fill="#CCCCCC" fill-rule="nonzero" points="14.8827805 24.3311146 18.4530284 24.3311146 18.4530284 23.0311145 14.8827805 23.0311145"></polygon>
                        <polygon id="Shape" fill="#CCCCCC" fill-rule="nonzero" points="20.5127869 24.3311146 24.0830348 24.3311146 24.0830348 23.0311145 20.5127869 23.0311145"></polygon>
                        <polygon id="Shape" fill="#CCCCCC" fill-rule="nonzero" points="14.8827805 27.6912797 18.4530284 27.6912797 18.4530284 26.3912796 14.8827805 26.3912796"></polygon>
                        <polygon id="Shape" fill="#CCCCCC" fill-rule="nonzero" points="20.5127869 27.6912797 24.0830348 27.6912797 24.0830348 26.3912796 20.5127869 26.3912796"></polygon>
                        <polygon id="Shape" fill="#CCCCCC" fill-rule="nonzero" points="14.8827805 31.0514448 18.4530284 31.0514448 18.4530284 29.7514448 14.8827805 29.7514448"></polygon>
                        <polygon id="Shape" fill="#CCCCCC" fill-rule="nonzero" points="20.5127869 31.0514448 24.0830348 31.0514448 24.0830348 29.7514448 20.5127869 29.7514448"></polygon>
                        <polygon id="Shape" fill="#CCCCCC" fill-rule="nonzero" points="14.8827805 34.4116099 18.4530284 34.4116099 18.4530284 33.1116099 14.8827805 33.1116099"></polygon>
                        <polygon id="Shape" fill="#CCCCCC" fill-rule="nonzero" points="20.5127869 34.4116099 24.0830348 34.4116099 24.0830348 33.1116099 20.5127869 33.1116099"></polygon>
                        <polygon id="Shape" fill="#CCCCCC" fill-rule="nonzero" points="36.7601231 1.78000004 36.7601231 2.85676936 38.3201232 2.85676936 38.3201232 0.219999957 35.1123164 0.219999957 35.1123164 2.85676936 36.6723165 2.85676936 36.6723165 1.78000004"></polygon>
                        <polygon id="Shape" fill="#CCCCCC" fill-rule="nonzero" points="0.0549268913 42.9270124 67.1303204 42.9270124 67.1303204 40.9770123 0.0549268913 40.9770123"></polygon>
                    </g>
                    <g id="trees" transform="translate(0.978682, 28.896404)">
                        <path d="M4.79651725,12.7523504 L4.79651725,10.2131325 C6.91866704,9.96289701 8.58138524,7.83979916 8.58138524,5.26605211 C8.58138524,2.52456922 6.69485581,0.294221858 4.37596743,0.294221858 C2.05711922,0.294221858 0.170549619,2.52460947 0.170549619,5.26605211 C0.170549619,7.83975892 1.83326782,9.96285676 3.95541762,10.2131325 L3.95541762,12.7523504 L4.79651725,12.7523504 Z" id="Shape" fill="#CCCCCC"></path>
                        <path d="M3.22441608,6.82879636 L3.95549795,7.5613126 L3.95549795,9.36302407 C2.29812198,9.10824106 1.01168942,7.36810249 1.01168942,5.26605211 C1.01168942,2.98922325 2.52092903,1.13688517 4.3760076,1.13688517 C6.23108617,1.13688517 7.74032578,2.989183 7.74032578,5.26605211 C7.74032578,7.36814273 6.45389322,9.10824106 4.79655741,9.36302407 L4.79655741,7.5613126 L6.00506575,6.35045947 C6.16926896,6.18594313 6.16926896,5.91912725 6.00506575,5.75461091 C5.84086253,5.59009457 5.57455449,5.59009457 5.41035127,5.75461091 L4.37604776,6.79088677 L3.81921089,6.2329478 C3.65500768,6.06843146 3.38869963,6.06843146 3.22449641,6.2329478 C3.0602932,6.39746414 3.0601727,6.66428002 3.22441608,6.82879636 Z" id="Path" fill="#FFFFFF"></path>
                        <path d="M2.90974681,7.1304633 C2.5009258,6.63482161 2.27582922,5.97269164 2.27582922,5.26605211 C2.27582922,4.9035769 2.33483473,4.55281261 2.4511989,4.22333725 C2.52872145,4.00396872 2.41400414,3.76319052 2.1950933,3.68556038 C1.97618246,3.60789 1.73586254,3.72282607 1.65833999,3.94215436 C1.50996262,4.36209761 1.43476976,4.80751513 1.43476976,5.26597162 C1.43476976,6.16803467 1.72831112,7.02075892 2.26128872,7.66715359 C2.34447484,7.76804461 2.46461472,7.82016023 2.5857186,7.82016023 C2.68003102,7.82016023 2.77494593,7.78852866 2.85335217,7.72361554 C3.03245738,7.57543815 3.05768234,7.30986982 2.90974681,7.1304633 Z" id="Shape" fill="#CCCCCC"></path>
                        <path d="M3.05382629,2.64433454 C2.88910091,2.48026088 2.62287319,2.48102551 2.45911182,2.64606502 C2.42280074,2.68264657 2.38648965,2.72111957 2.35114258,2.76047793 C2.19573597,2.9334052 2.20971413,3.19981865 2.38235244,3.35552161 C2.46272686,3.4280408 2.56330535,3.46373698 2.66356249,3.46373698 C2.77864131,3.46373698 2.89323812,3.41673231 2.97626357,3.32425224 C3.00233204,3.29527676 3.02900301,3.26698542 3.05555348,3.24022335 C3.21927469,3.07518384 3.21855168,2.80844844 3.05382629,2.64433454 Z" id="Shape" fill="#CCCCCC"></path>
                    </g>
                    <g id="trees" transform="translate(57.154324, 28.896404)">
                        <path d="M4.79651725,12.7523504 L4.79651725,10.2131325 C6.91866704,9.96289701 8.58138524,7.83979916 8.58138524,5.26605211 C8.58138524,2.52456922 6.69485581,0.294221858 4.37596743,0.294221858 C2.05711922,0.294221858 0.170549619,2.52460947 0.170549619,5.26605211 C0.170549619,7.83975892 1.83326782,9.96285676 3.95541762,10.2131325 L3.95541762,12.7523504 L4.79651725,12.7523504 Z" id="Shape" fill="#CCCCCC"></path>
                        <path d="M3.22441608,6.82879636 L3.95549795,7.5613126 L3.95549795,9.36302407 C2.29812198,9.10824106 1.01168942,7.36810249 1.01168942,5.26605211 C1.01168942,2.98922325 2.52092903,1.13688517 4.3760076,1.13688517 C6.23108617,1.13688517 7.74032578,2.989183 7.74032578,5.26605211 C7.74032578,7.36814273 6.45389322,9.10824106 4.79655741,9.36302407 L4.79655741,7.5613126 L6.00506575,6.35045947 C6.16926896,6.18594313 6.16926896,5.91912725 6.00506575,5.75461091 C5.84086253,5.59009457 5.57455449,5.59009457 5.41035127,5.75461091 L4.37604776,6.79088677 L3.81921089,6.2329478 C3.65500768,6.06843146 3.38869963,6.06843146 3.22449641,6.2329478 C3.0602932,6.39746414 3.0601727,6.66428002 3.22441608,6.82879636 Z" id="Path" fill="#FFFFFF"></path>
                        <path d="M2.90974681,7.1304633 C2.5009258,6.63482161 2.27582922,5.97269164 2.27582922,5.26605211 C2.27582922,4.9035769 2.33483473,4.55281261 2.4511989,4.22333725 C2.52872145,4.00396872 2.41400414,3.76319052 2.1950933,3.68556038 C1.97618246,3.60789 1.73586254,3.72282607 1.65833999,3.94215436 C1.50996262,4.36209761 1.43476976,4.80751513 1.43476976,5.26597162 C1.43476976,6.16803467 1.72831112,7.02075892 2.26128872,7.66715359 C2.34447484,7.76804461 2.46461472,7.82016023 2.5857186,7.82016023 C2.68003102,7.82016023 2.77494593,7.78852866 2.85335217,7.72361554 C3.03245738,7.57543815 3.05768234,7.30986982 2.90974681,7.1304633 Z" id="Shape" fill="#CCCCCC"></path>
                        <path d="M3.05382629,2.64433454 C2.88910091,2.48026088 2.62287319,2.48102551 2.45911182,2.64606502 C2.42280074,2.68264657 2.38648965,2.72111957 2.35114258,2.76047793 C2.19573597,2.9334052 2.20971413,3.19981865 2.38235244,3.35552161 C2.46272686,3.4280408 2.56330535,3.46373698 2.66356249,3.46373698 C2.77864131,3.46373698 2.89323812,3.41673231 2.97626357,3.32425224 C3.00233204,3.29527676 3.02900301,3.26698542 3.05555348,3.24022335 C3.21927469,3.07518384 3.21855168,2.80844844 3.05382629,2.64433454 Z" id="Shape" fill="#D7D7D7"></path>
                    </g>
                </g>
                <path d="M1.2868838,7.8789762 C0.577077936,7.8789762 0,7.29773592 0,6.58516275 C0,5.87258959 0.576028703,5.29293163 1.28006379,5.29293163 L1.88756947,5.33248973 L1.92796492,4.81770705 C2.04285589,3.35511239 3.27622883,2.20950995 4.73571139,2.20950995 C5.72303928,2.20950995 6.62170701,2.71796333 7.14002792,3.56925355 L7.37453141,3.95481312 L7.7895029,3.7807575 C8.04761413,3.67157716 8.32408692,3.61672326 8.60633049,3.61672326 C9.47929202,3.61672326 10.2520518,4.14416454 10.5746909,4.96117107 L10.7047957,5.28976699 L11.0562886,5.29398652 C11.7582253,5.30242558 12.3290078,5.88155609 12.3290078,6.5856902 C12.3290078,7.29773592 11.7508806,7.8789762 11.0410748,7.8789762 L1.2868838,7.8789762 Z" id="Shape" fill="#FFFFFF" opacity="0.748250933"></path>
                <path d="M1.2868838,7.22897616 L11.0410748,7.22897616 C11.3909912,7.22897616 11.6790078,6.93965292 11.6790078,6.5856902 C11.6790078,6.23716079 11.3941658,5.94809567 11.0484862,5.94393972 L10.2609708,5.93448592 L10.1004438,5.52905514 L9.97012443,5.19991669 C9.74539543,4.63084399 9.21219152,4.2667233 8.60633049,4.2667233 C8.40929336,4.2667233 8.21908669,4.30480431 8.04091864,4.38016569 L7.10995154,4.77065047 L6.81918403,4.29258426 L6.58484061,3.90728773 C6.18404501,3.24902107 5.49538692,2.85950998 4.73571139,2.85950998 C3.61609799,2.85950998 2.66434168,3.7435973 2.57597291,4.86855681 L2.48539886,6.02279434 L1.84533377,5.98111612 L1.28006379,5.94293167 C0.935621488,5.94293167 0.650000036,6.23098395 0.650000036,6.58516275 C0.650000036,6.93997543 0.937291171,7.22897616 1.2868838,7.22897616 Z M12.9790078,6.5856902 C12.9790078,7.65630913 12.110282,8.52897624 11.0410748,8.52897624 L1.2868838,8.52897624 C0.217588686,8.52897624 -0.650000036,7.6562247 -0.650000036,6.58516275 C-0.650000036,5.52533023 0.199294433,4.65903675 1.2917408,4.64448956 C1.49048506,2.90337161 2.97723915,1.55950991 4.73571139,1.55950991 C5.91503339,1.55950991 6.99454509,2.15066439 7.6385992,3.14126186 C7.94669248,3.0254685 8.27349523,2.96672323 8.60633049,2.96672323 C9.71975745,2.96672323 10.7108069,3.62548136 11.1481739,4.64685779 C12.1673962,4.70317194 12.9790078,5.55427217 12.9790078,6.5856902 Z" id="Shape" fill="#CCCCCC" fill-rule="nonzero"></path>
            </g>
        </g>
    </g>
</svg>